<svg width="32" height="31" viewBox="0 0 32 31" fill="none" xmlns="http://www.w3.org/2000/svg">
<path d="M26.1096 13.9366L20.1463 11.37L18.8182 10.8081C18.6139 10.706 18.4352 10.4378 18.4352 10.2079V6.30046C18.4352 5.07459 17.5285 3.61886 16.4303 3.057C16.0473 2.86546 15.5876 2.86546 15.2045 3.057C14.1191 3.61886 13.2124 5.08736 13.2124 6.31323V10.2207C13.2124 10.4506 13.0336 10.7187 12.8293 10.8209L5.5507 13.9494C4.74622 14.2814 4.09497 15.2902 4.09497 16.1585V17.8441C4.09497 18.9295 4.91222 19.4659 5.92101 19.0317L12.3185 16.2735C12.8166 16.0564 13.2252 16.3245 13.2252 16.8736V18.2911V20.5896C13.2252 20.8833 13.0592 21.3047 12.8549 21.509L9.89234 24.4843C9.58587 24.7907 9.4454 25.3909 9.58587 25.8251L10.1605 27.5617C10.3904 28.3151 11.2459 28.6727 11.9482 28.3151L14.9874 25.7612C15.4471 25.3654 16.2005 25.3654 16.6602 25.7612L19.6993 28.3151C20.4017 28.6599 21.2572 28.3151 21.5126 27.5617L22.0872 25.8251C22.2277 25.4037 22.0872 24.7907 21.7808 24.4843L18.8182 21.509C18.6012 21.3047 18.4352 20.8833 18.4352 20.5896V16.8736C18.4352 16.3245 18.831 16.0692 19.3418 16.2735L25.7393 19.0317C26.7481 19.4659 27.5654 18.9295 27.5654 17.8441V16.1585C27.5654 15.2902 26.9141 14.2814 26.1096 13.9366Z" fill="#292D32"/>
</svg>
