<svg width="32" height="31" viewBox="0 0 32 31" fill="none" xmlns="http://www.w3.org/2000/svg">
<path d="M15.0879 19.453L12.7256 21.8154C12.2275 22.3134 11.4358 22.3134 10.9251 21.8281C10.7846 21.6877 10.6441 21.56 10.5037 21.4195C9.1884 20.0915 8.00083 18.6996 6.94096 17.2439C5.89386 15.7881 5.05107 14.3324 4.43813 12.8895C3.83796 11.4337 3.53149 10.0419 3.53149 8.71383C3.53149 7.8455 3.68473 7.01548 3.9912 6.24931C4.29767 5.47036 4.78291 4.75527 5.45969 4.11679C6.27694 3.31231 7.17081 2.91646 8.11576 2.91646C8.4733 2.91646 8.83085 2.99308 9.15009 3.14631C9.4821 3.29954 9.7758 3.5294 10.0056 3.8614L12.9682 8.03704C13.198 8.35628 13.364 8.64998 13.479 8.93091C13.5939 9.19907 13.6577 9.46723 13.6577 9.70985C13.6577 10.0163 13.5683 10.3228 13.3896 10.6165C13.2236 10.9102 12.9809 11.2167 12.6745 11.5231L11.704 12.5319C11.5635 12.6724 11.4997 12.8384 11.4997 13.0427C11.4997 13.1449 11.5125 13.2342 11.538 13.3364C11.5763 13.4386 11.6146 13.5152 11.6401 13.5918C11.87 14.0132 12.2659 14.5623 12.8277 15.2263C13.4023 15.8903 14.0153 16.5671 14.6793 17.2439C14.807 17.3716 14.9475 17.4993 15.0752 17.627C15.5859 18.125 15.5987 18.9422 15.0879 19.453Z" fill="white"/>
<path d="M29.0317 23.7692C29.0317 24.1267 28.9679 24.497 28.8402 24.8546C28.8019 24.9567 28.7636 25.0589 28.7125 25.161C28.4954 25.6207 28.2145 26.0549 27.8442 26.4635C27.2185 27.1531 26.5289 27.6511 25.75 27.9703C25.7372 27.9703 25.7244 27.9831 25.7117 27.9831C24.9583 28.2896 24.141 28.4556 23.2599 28.4556C21.9574 28.4556 20.5656 28.1491 19.0971 27.5234C17.6286 26.8977 16.1601 26.0549 14.7043 24.995C14.2063 24.6247 13.7083 24.2544 13.2358 23.8585L17.4115 19.6829C17.769 19.9511 18.0883 20.1554 18.3564 20.2958C18.4203 20.3214 18.4969 20.3597 18.5863 20.398C18.6884 20.4363 18.7906 20.4491 18.9055 20.4491C19.1226 20.4491 19.2886 20.3725 19.4291 20.232L20.3995 19.2743C20.7188 18.955 21.0253 18.7124 21.319 18.5592C21.6127 18.3804 21.9064 18.291 22.2256 18.291C22.4682 18.291 22.7236 18.3421 23.0045 18.457C23.2855 18.572 23.5792 18.738 23.8984 18.955L28.1251 21.9559C28.4571 22.1857 28.687 22.4539 28.8274 22.7731C28.9551 23.0924 29.0317 23.4116 29.0317 23.7692Z" fill="white"/>
</svg>
