<svg width="32" height="32" viewBox="0 0 32 32" fill="none" xmlns="http://www.w3.org/2000/svg">
<path d="M28.2415 11.0878C28.2415 11.6114 27.8074 12.0456 27.2838 12.0456H4.29866C3.77511 12.0456 3.34094 11.6114 3.34094 11.0878C3.34094 10.5643 3.77511 10.1301 4.29866 10.1301H5.60115L6.08639 7.81884C6.5461 5.58417 7.50381 3.52827 11.3091 3.52827H20.2733C24.0787 3.52827 25.0364 5.58417 25.4961 7.81884L25.9813 10.1301H27.2838C27.8074 10.1301 28.2415 10.5643 28.2415 11.0878Z" fill="#292D32"/>
<path d="M28.7901 18.3153C28.5986 16.2083 28.0367 13.9609 23.9377 13.9609H7.64379C3.54477 13.9609 2.99568 16.2083 2.79137 18.3153L2.07627 26.0919C1.98689 27.0624 2.30612 28.0329 2.97014 28.7608C3.64693 29.5014 4.60464 29.9228 5.6262 29.9228H8.02688C10.0955 29.9228 10.4914 28.7352 10.7468 27.9563L11.0022 27.1901C11.2959 26.309 11.3725 26.0919 12.5217 26.0919H19.0598C20.209 26.0919 20.2473 26.2196 20.5793 27.1901L20.8347 27.9563C21.0901 28.7352 21.486 29.9228 23.5546 29.9228H25.9553C26.9641 29.9228 27.9346 29.5014 28.6114 28.7608C29.2754 28.0329 29.5946 27.0624 29.5052 26.0919L28.7901 18.3153ZM11.9599 20.9841H8.12903C7.60548 20.9841 7.17132 20.55 7.17132 20.0264C7.17132 19.5029 7.60548 19.0687 8.12903 19.0687H11.9599C12.4834 19.0687 12.9176 19.5029 12.9176 20.0264C12.9176 20.55 12.4834 20.9841 11.9599 20.9841ZM23.4525 20.9841H19.6216C19.0981 20.9841 18.6639 20.55 18.6639 20.0264C18.6639 19.5029 19.0981 19.0687 19.6216 19.0687H23.4525C23.976 19.0687 24.4102 19.5029 24.4102 20.0264C24.4102 20.55 23.976 20.9841 23.4525 20.9841Z" fill="#292D32"/>
</svg>
