<svg width="31" height="32" viewBox="0 0 31 32" fill="none" xmlns="http://www.w3.org/2000/svg">
<path d="M20.7479 29.3708C21.982 29.3708 22.9825 28.3703 22.9825 27.1361C22.9825 25.9019 21.982 24.9014 20.7479 24.9014C19.5137 24.9014 18.5132 25.9019 18.5132 27.1361C18.5132 28.3703 19.5137 29.3708 20.7479 29.3708Z" fill="#292D32"/>
<path d="M10.5323 29.3708C11.7664 29.3708 12.7669 28.3703 12.7669 27.1361C12.7669 25.9019 11.7664 24.9014 10.5323 24.9014C9.2981 24.9014 8.29761 25.9019 8.29761 27.1361C8.29761 28.3703 9.2981 29.3708 10.5323 29.3708Z" fill="#292D32"/>
<path d="M6.17801 5.67052L5.92262 8.79906C5.87154 9.39923 6.34402 9.89724 6.94418 9.89724H26.4943C27.0307 9.89724 27.4776 9.48861 27.5159 8.95229C27.6819 6.69209 25.958 4.85327 23.6978 4.85327H8.00406C7.87636 4.29141 7.62097 3.75509 7.22511 3.30816C6.58664 2.63137 5.69277 2.23552 4.77336 2.23552H2.55146C2.02791 2.23552 1.59375 2.66968 1.59375 3.19323C1.59375 3.71679 2.02791 4.15095 2.55146 4.15095H4.77336C5.16922 4.15095 5.53954 4.31695 5.8077 4.59788C6.07586 4.89158 6.20355 5.27467 6.17801 5.67052Z" fill="#292D32"/>
<path d="M26.1878 11.8127H6.59933C6.06301 11.8127 5.62884 12.2213 5.57776 12.7448L5.11806 18.2996C4.93929 20.4832 6.65041 22.3475 8.834 22.3475H23.0337C24.9491 22.3475 26.6347 20.7769 26.7752 18.8614L27.1966 12.8981C27.2477 12.3107 26.788 11.8127 26.1878 11.8127Z" fill="#292D32"/>
</svg>
