<svg width="32" height="31" viewBox="0 0 32 31" fill="none" xmlns="http://www.w3.org/2000/svg">
<path d="M12.1322 26.889V22.9844C12.1322 21.9877 12.9461 21.1797 13.9502 21.1797H17.6203C18.1025 21.1797 18.5649 21.3698 18.9058 21.7082C19.2468 22.0467 19.4383 22.5057 19.4383 22.9844V26.889C19.4352 27.3033 19.5989 27.7018 19.893 27.9959C20.1871 28.2899 20.5873 28.4553 21.0047 28.4553H23.5087C24.6781 28.4583 25.8007 27.9993 26.6287 27.1794C27.4567 26.3596 27.922 25.2463 27.922 24.0854V12.9619C27.922 12.0241 27.5033 11.1345 26.7787 10.5329L18.2606 3.77933C16.7789 2.5952 14.6559 2.63343 13.2184 3.87013L4.89474 10.5329C4.13588 11.1168 3.68233 12.009 3.65991 12.9619V24.074C3.65991 26.4938 5.63585 28.4553 8.07328 28.4553H10.5201C11.387 28.4553 12.0916 27.761 12.0979 26.9003L12.1322 26.889Z" fill="#200E32"/>
</svg>
